<svg width="40" height="40" viewBox="0 0 40 40" fill="none" xmlns="http://www.w3.org/2000/svg">
<path fill-rule="evenodd" clip-rule="evenodd" d="M33.75 20C33.75 27.5939 27.5939 33.75 20 33.75C12.4061 33.75 6.25 27.5939 6.25 20C6.25 12.4061 12.4061 6.25 20 6.25C27.5939 6.25 33.75 12.4061 33.75 20ZM35 20C35 28.2843 28.2843 35 20 35C11.7157 35 5 28.2843 5 20C5 11.7157 11.7157 5 20 5C28.2843 5 35 11.7157 35 20ZM21.2249 14.55C22.4249 14.55 23.4249 13.575 23.4249 12.375C23.4249 11.2 22.4249 10.225 21.2249 10.225C20.0249 10.225 19.0749 11.2 19.0749 12.375C19.0749 13.575 20.0249 14.55 21.2249 14.55ZM16.0249 28.7V28.75H20.7999V28.7C20.5749 27.625 20.6999 26.6 21.2249 24.05L22.8999 16.05L17.5499 17.325V17.375C18.3499 18.25 18.4749 19.675 18.0999 21.35L17.5249 24.1C17.48 24.2985 17.4374 24.4895 17.3962 24.6735C17.0022 26.4363 16.7493 27.5682 16.0249 28.7Z" fill="#00425B"/>
</svg>
